<svg width="207" height="202" viewBox="0 0 207 202" fill="none" xmlns="http://www.w3.org/2000/svg">
<rect width="206.034" height="201.446" rx="100" fill="#57D3D5"/>
<g filter="url(#filter0_d_4_251)">
<path d="M60.744 42.7785C53.6015 44.2558 43.8492 49.8963 39.4538 55.5367C28.1907 70.0409 29.9764 90.3198 42.8878 116.642C55.6619 142.561 72.8735 159.643 84.274 159.643C85.947 159.643 89.6525 158.641 93.119 157.41C98.2532 155.588 103.724 151.715 108.132 154.917C115.549 160.289 123.42 160.717 130.288 157.225C138.942 152.928 155.657 134.638 154.146 130.743C152.91 127.654 147.667 125.371 143.844 132.38C142.745 134.395 138.075 140.413 134.229 144.173C127.774 150.619 126.675 150.888 121.181 150.888C121.11 150.888 121.039 150.888 120.97 150.887C114.782 150.851 110.49 145.008 104.698 142.83C101.264 141.487 98.7358 144.068 98.6175 144.173C98.4992 144.278 94.9456 147.287 91.6491 148.765C85.2735 151.787 77.5478 149.925 72.7792 144.725C70.101 141.804 67.1939 137.811 63.4911 132.38C37.9429 94.9113 33.7271 64.8287 55.2919 54.0849C66.6924 48.3101 82.9004 50.8617 94.9877 60.1283C97.8722 62.4113 101.306 64.2915 102.68 64.2915C103.916 64.2915 108.174 62.1427 112.157 59.5911C133.859 45.4899 155.424 48.713 163.528 67.3803C166.138 73.4237 164.173 87.3652 161.014 94.483C157.717 102.138 149.518 111.296 140.865 115.324C135.645 117.742 131.207 117.851 122.554 117.985C115.502 117.985 111.406 116.901 107.193 115.264C103.985 114.017 100.979 112.286 98.2991 110.126C93.9712 106.638 89.7595 102.717 87.0184 99.1987C83.294 94.4186 91.6147 86.8012 86.8416 83.0677C85.9189 82.346 82.3988 82.5148 79.9738 82.3962C63.8543 81.6082 68.9853 88.4396 73.106 89.7826C74.3422 90.3198 75.9831 94.1006 77.9556 98.5373C82.7209 109.256 91.9659 116.399 102.13 121.502C111.608 126.203 128.228 127.546 138.117 124.188C154.188 118.951 166.001 109.524 171.22 94.483C174.517 85.0822 175.573 77.4526 172.689 67.3803C168.843 54.2192 157.854 46.2702 142.471 42.7785C133.405 40.6297 119.944 44.3901 110.192 50.8363C106.346 53.2537 103.504 56.2336 102.405 56.2336C101.306 56.2336 97.7348 52.4479 94.9877 50.1648C86.0596 43.3157 71.8698 40.4954 60.744 42.7785Z" fill="white"/>
</g>
<defs>
<filter id="filter0_d_4_251" x="28" y="42" width="150.367" height="125.643" filterUnits="userSpaceOnUse" color-interpolation-filters="sRGB">
<feFlood flood-opacity="0" result="BackgroundImageFix"/>
<feColorMatrix in="SourceAlpha" type="matrix" values="0 0 0 0 0 0 0 0 0 0 0 0 0 0 0 0 0 0 127 0" result="hardAlpha"/>
<feOffset dy="4"/>
<feGaussianBlur stdDeviation="2"/>
<feComposite in2="hardAlpha" operator="out"/>
<feColorMatrix type="matrix" values="0 0 0 0 0 0 0 0 0 0 0 0 0 0 0 0 0 0 0.25 0"/>
<feBlend mode="normal" in2="BackgroundImageFix" result="effect1_dropShadow_4_251"/>
<feBlend mode="normal" in="SourceGraphic" in2="effect1_dropShadow_4_251" result="shape"/>
</filter>
</defs>
</svg>
