<svg width="215" height="210" viewBox="0 0 215 210" fill="none" xmlns="http://www.w3.org/2000/svg">
<g filter="url(#filter0_d_4_253)">
<rect x="4" width="206.034" height="201.446" rx="100" fill="#56D3D5"/>
</g>
<g filter="url(#filter1_d_4_253)">
<path d="M64.744 42.7785C57.6015 44.2558 47.8492 49.8963 43.4538 55.5367C32.1907 70.0409 33.9764 90.3198 46.8878 116.642C59.6619 142.561 76.8735 159.643 88.274 159.643C89.947 159.643 93.6525 158.641 97.119 157.41C102.253 155.588 107.724 151.715 112.132 154.917C119.549 160.289 127.42 160.717 134.288 157.225C142.942 152.928 159.657 134.638 158.146 130.743C156.91 127.654 151.667 125.371 147.844 132.38C146.745 134.395 142.075 140.413 138.229 144.173C131.774 150.619 130.675 150.888 125.181 150.888C125.11 150.888 125.039 150.888 124.97 150.887C118.782 150.851 114.49 145.008 108.698 142.83C105.264 141.487 102.736 144.068 102.617 144.173C102.499 144.278 98.9456 147.287 95.6491 148.765C89.2735 151.787 81.5478 149.925 76.7792 144.725C74.101 141.804 71.1939 137.811 67.4911 132.38C41.9429 94.9113 37.7271 64.8287 59.2919 54.0849C70.6924 48.3101 86.9004 50.8617 98.9877 60.1283C101.872 62.4113 105.306 64.2915 106.68 64.2915C107.916 64.2915 112.174 62.1427 116.157 59.5911C137.859 45.4899 159.424 48.713 167.528 67.3803C170.138 73.4237 168.173 87.3652 165.014 94.483C161.717 102.138 153.518 111.296 144.865 115.324C139.645 117.742 135.207 117.851 126.554 117.985C119.502 117.985 115.406 116.901 111.193 115.264C107.985 114.017 104.979 112.286 102.299 110.126C97.9712 106.638 93.7595 102.717 91.0184 99.1987C87.294 94.4186 95.6147 86.8012 90.8416 83.0677C89.9189 82.346 86.3988 82.5148 83.9738 82.3962C67.8543 81.6082 72.9853 88.4396 77.106 89.7826C78.3422 90.3198 79.9831 94.1006 81.9556 98.5373C86.7209 109.256 95.9659 116.399 106.13 121.502C115.608 126.203 132.228 127.546 142.117 124.188C158.188 118.951 170.001 109.524 175.22 94.483C178.517 85.0822 179.573 77.4526 176.689 67.3803C172.843 54.2192 161.854 46.2702 146.471 42.7785C137.405 40.6297 123.944 44.3901 114.192 50.8363C110.346 53.2537 107.504 56.2336 106.405 56.2336C105.306 56.2336 101.735 52.4479 98.9877 50.1648C90.0596 43.3157 75.8698 40.4954 64.744 42.7785Z" fill="#ffffff"/>
</g>
<defs>
<filter id="filter0_d_4_253" x="0" y="0" width="214.034" height="209.446" filterUnits="userSpaceOnUse" color-interpolation-filters="sRGB">
<feFlood flood-opacity="0" result="BackgroundImageFix"/>
<feColorMatrix in="SourceAlpha" type="matrix" values="0 0 0 0 0 0 0 0 0 0 0 0 0 0 0 0 0 0 127 0" result="hardAlpha"/>
<feOffset dy="4"/>
<feGaussianBlur stdDeviation="2"/>
<feComposite in2="hardAlpha" operator="out"/>
<feColorMatrix type="matrix" values="0 0 0 0 0 0 0 0 0 0 0 0 0 0 0 0 0 0 0.25 0"/>
<feBlend mode="normal" in2="BackgroundImageFix" result="effect1_dropShadow_4_253"/>
<feBlend mode="normal" in="SourceGraphic" in2="effect1_dropShadow_4_253" result="shape"/>
</filter>
<filter id="filter1_d_4_253" x="32" y="42" width="150.367" height="125.643" filterUnits="userSpaceOnUse" color-interpolation-filters="sRGB">
<feFlood flood-opacity="0" result="BackgroundImageFix"/>
<feColorMatrix in="SourceAlpha" type="matrix" values="0 0 0 0 0 0 0 0 0 0 0 0 0 0 0 0 0 0 127 0" result="hardAlpha"/>
<feOffset dy="4"/>
<feGaussianBlur stdDeviation="2"/>
<feComposite in2="hardAlpha" operator="out"/>
<feColorMatrix type="matrix" values="0 0 0 0 0 0 0 0 0 0 0 0 0 0 0 0 0 0 0.25 0"/>
<feBlend mode="normal" in2="BackgroundImageFix" result="effect1_dropShadow_4_253"/>
<feBlend mode="normal" in="SourceGraphic" in2="effect1_dropShadow_4_253" result="shape"/>
</filter>
</defs>
</svg>
